<svg id="favicon" xmlns="http://www.w3.org/2000/svg" width="80" height="80" viewBox="0 0 80 80">
  <rect id="Rectangle_17" data-name="Rectangle 17" width="80" height="80" fill="#e8eddf"/>
  <path id="window" d="M87.283,22.347a16.079,16.079,0,0,0,.99-5.582c0-11.03-16.03-16.379-16.712-16.6L71.057,0l-.5.164c-.682.222-16.712,5.571-16.712,16.6a16.078,16.078,0,0,0,.99,5.582C52.4,23.579,51.038,26,51.038,29.209V54.418H91.077V29.209C91.077,26,89.716,23.579,87.283,22.347Zm.132,4.317-.313.3H84.879V25.242l.416-.4A3.554,3.554,0,0,1,87.414,26.664ZM84.879,14.838a8.09,8.09,0,0,1,.233,1.835l-.233-.225Zm.2,2.885q-.045.638-.151,1.266a4.147,4.147,0,0,0-.255,1.173l-.009.031-.032-.031-.147.142-1.629-1.579,1.629-1.578ZM81.867,39.977,80.3,38.454l2-1.939,1.793,1.737v1.724Zm2.222.765v1.724L82.3,44.2l-2-1.939,1.572-1.523Zm-4.108-6.47,1.757,1.7-2,1.939-1.571-1.522V34.244Q79.077,34.261,79.981,34.272Zm-1.816-.793v-2.16L79.737,29.8l2,1.939-1.827,1.771Q79.042,33.495,78.166,33.479Zm2.5.376L82.3,32.276l1.629,1.579L82.3,35.433ZM82.3,31.194l-2-1.939,1.571-1.523h2.222v1.724Zm-.43-4.227L80.3,25.445l2-1.939.695.673-.026.054.111.028,1.013.982v1.724H81.867Zm1.912-4.408-.43.884-.494-.479,1.3-1.262C84.041,21.991,83.916,22.277,83.779,22.559ZM82.3,22.424l-1.629-1.579L82.3,19.267l1.629,1.579Zm-2-6.178,1.572-1.523h2.222v1.724L82.3,18.184Zm1.443,2.48-1.757,1.7q-.907.011-1.815.028V18.309l1.571-1.522Zm-1.827,2.469,1.827,1.771-2,1.939-1.572-1.523v-2.16Q79.038,21.205,79.911,21.194Zm1.234,6.156-3.374,3.269L74.4,27.35l3.374-3.269ZM68.44,39.977l-1.571-1.522,2-1.939,1.793,1.737v1.724H68.44Zm2.222.765v1.724L68.87,44.2l-2-1.939,1.572-1.523Zm-1.234-9.007,1.629-1.578,1.629,1.579-1.629,1.578ZM70.5,33.855,68.87,35.433l-1.629-1.579,1.629-1.578Zm-1.071-10.89,1.629-1.579,1.629,1.578-1.629,1.579Zm3.817,9.312,1.629,1.578-1.629,1.578-1.629-1.578Zm-1.793-2.819V27.733h2.222l1.571,1.523-2,1.939Zm0-2.49V25.242l1.793-1.737,2,1.939-1.571,1.522H71.452Zm2.351-4L75.6,21.228h1.78v2.153L75.8,24.9Zm-.558-.541-1.629-1.578,1.629-1.578,1.629,1.578ZM71.057,20.3l-1.629-1.579,1.629-1.578,1.629,1.578Zm-.558.541L68.87,22.424l-1.629-1.579,1.629-1.578Zm.164,4.4v1.724H68.44l-1.571-1.522,2-1.939Zm0,2.49v1.724L68.87,31.194l-2-1.939,1.571-1.523h2.222Zm-2.351,4-1.793,1.737h-1.78V31.319L66.31,29.8Zm-1.793,2.5,1.793,1.737-2,1.939-1.571-1.522V34.237h1.78Zm2.909,1.737L71.057,34.4l1.629,1.578-1.629,1.579Zm2.024,4.768h2.222l1.572,1.523-2,1.939-1.793-1.737V40.742Zm0-.765V38.252l1.793-1.737,2,1.939-1.572,1.522Zm2.351-4L75.6,34.237h1.78v2.154L75.8,37.913Zm1.792-2.5L73.8,31.735l2-1.939,1.571,1.523v2.153H75.6Zm1.78-13.01H75.6L73.8,18.726l2-1.939,1.571,1.522v2.154Zm-4.131-2.278-1.793-1.737V14.723h2.222l1.572,1.523Zm-1.793-4.227V12.233L73.245,10.5l2,1.939-1.572,1.522Zm2.351-4L75.6,8.218h1.78v2.154L75.8,11.894Zm-.558-.541L71.616,7.836l1.629-1.578,1.629,1.578Zm-.559.541-1.629,1.578L69.428,9.955l1.629-1.578ZM68.87,9.414,67.241,7.836,68.87,6.257,70.5,7.836Zm1.793,2.819v1.724H68.44l-1.571-1.522,2-1.939Zm0,2.489v1.724L68.87,18.184l-2-1.939,1.572-1.523h2.222Zm-2.351,4-1.793,1.737h-1.78V18.309l1.571-1.522Zm-1.793,2.5,1.793,1.737-2,1.939-1.572-1.523V21.228Zm1.2,6.122-3.374,3.269L60.97,27.35l3.374-3.269ZM58.026,39.977V38.252l1.792-1.737,2,1.939-1.572,1.522Zm3.794,2.288-2,1.939-1.792-1.737V40.742h2.222Zm-2.7-18.086.716-.694c.685.635,1.365,1.283,1.993,1.947l-1.584,1.535H58.026V25.242l1.012-.981.112-.028ZM60.4,22.944l1.806-1.75q.877.011,1.746.027v2.16L62.391,24.89C61.759,24.223,61.08,23.576,60.4,22.944Zm-.15,4.789,1.571,1.523-2,1.939-1.792-1.737V27.733Zm1.2,6.122-1.629,1.578-1.629-1.578,1.629-1.578Zm-1.07,2.119,1.757-1.7q.912-.011,1.816-.028v2.147l-1.571,1.522ZM62.2,33.505l-1.827-1.77,2-1.939,1.572,1.523v2.16Q63.08,33.495,62.2,33.505Zm1.746-13.05q-.9-.017-1.816-.028l-1.751-1.7c.67-.638,1.344-1.288,2-1.942l1.568,1.519Zm-2.5.389-1.629,1.578-1.629-1.578,1.629-1.578Zm-2.187,2.119-.494.478-.43-.884c-.137-.282-.263-.568-.379-.856Zm0,8.771L57.63,33.314,56,31.735l1.629-1.578Zm0,4.239L57.63,37.553,56,35.974,57.63,34.4Zm0,8.771L57.63,46.323,56,44.745l1.629-1.578Zm.559.541,1.629,1.578-1.629,1.578-1.629-1.578Zm.558-.541,2-1.939,1.571,1.522v2.147q-.9-.017-1.816-.027Zm.593-4.386,3.374-3.269,3.374,3.269-3.374,3.269Zm3.769,3.969,1.571-1.522,2,1.939-1.793,1.737h-1.78V44.328Zm4.131.958L70.5,46.864,68.87,48.443l-1.629-1.579Zm.558-.541,1.629-1.578,1.629,1.578-1.629,1.578Zm3.817.541,1.629,1.578-1.629,1.578-1.629-1.578Zm.558-.541,2-1.939,1.571,1.522v2.154H75.6Zm.593-4.386,3.374-3.269,3.374,3.269-3.374,3.269Zm3.769,3.969,1.571-1.522,2,1.939-1.757,1.7q-.9.011-1.816.028V44.328Zm4.131.958,1.629,1.579L82.3,48.443l-1.629-1.579Zm.558-.541,1.629-1.578,1.629,1.578-1.629,1.578Zm0-8.77L84.484,34.4l1.629,1.578-1.629,1.579Zm0-4.239,1.629-1.578,1.629,1.579-1.629,1.578Zm.394-20.315a11.227,11.227,0,0,1,.84,1.352v1.185H81.867l-1.574-1.525c.659-.653,1.339-1.3,2.013-1.927ZM78.166,6.8q.412.27.82.558-.42.024-.82.057Zm0,1.383c.521-.045,1.066-.076,1.645-.1l1.937,1.876c-.673.63-1.352,1.273-2.013,1.927l-1.569-1.52Zm2.979,6.156-3.374,3.269L74.4,14.34l3.374-3.269ZM77.376,6.3V7.453H75.6L73.8,5.716l.911-.883C75.553,5.251,76.459,5.741,77.376,6.3ZM71.452,3.394c.611.235,1.492.6,2.517,1.079l-.725.7L71.452,3.438Zm1.234,2.323L71.057,7.295,69.428,5.716l1.629-1.578ZM70.663,3.394v.044L68.87,5.175l-.724-.7C69.171,3.99,70.052,3.629,70.663,3.394ZM64.739,6.3c.917-.561,1.823-1.05,2.662-1.468l.911.882L66.519,7.453h-1.78Zm0,1.917h1.78l1.793,1.737-2,1.939-1.571-1.522V8.218Zm2.979,6.122-3.374,3.269L60.97,14.34l3.374-3.269ZM63.949,6.8v.659c-.328,0-.653.006-.969.007Q63.461,7.12,63.949,6.8Zm-1.79,1.427c.256,0,.523,0,.8,0,.323,0,.657,0,.994-.007v2.148L62.382,11.89c-.635-.631-1.282-1.26-2-1.945Zm-4.134,4.545a11.279,11.279,0,0,1,.841-1.355l.96-.93c.714.686,1.362,1.315,2,1.945l-1.575,1.526H58.026Zm0,1.951h2.222l1.575,1.526c-.654.653-1.328,1.3-2,1.942l-1.8-1.743Zm1.234,4L57.631,20.3l-.2-.2a13.113,13.113,0,0,1-.391-2.385l.594-.575Zm-2.024-3.887v1.609L57,16.673A8.094,8.094,0,0,1,57.236,14.838Zm-.417,10,.417.4v1.724H55.014l-.313-.3A3.554,3.554,0,0,1,56.819,24.839ZM54.2,29.209c0-.25.013-.487.033-.717l.783-.759h2.222v1.724l-1.793,1.737L54.2,29.987v-.778Zm0,1.86.687.666L54.2,32.4Zm0,2.414,1.246-1.207,1.629,1.578-1.629,1.578L54.2,34.226Zm0,1.825.687.666-.687.666Zm0,2.414,1.246-1.207,1.793,1.737v1.724H55.014l-.816-.791Zm0,2.545.094.091-.094.091Zm0,1.265.816-.791h2.222v1.724L55.443,44.2,54.2,43V41.533Zm0,2.546.687.666-.687.666Zm0,2.414,1.246-1.207,1.629,1.578-1.629,1.578L54.2,47.235v-.742Zm0,1.825.688.666-.688.666Zm3.039,3.039H54.2v-.625l1.246-1.207,1.793,1.737v.095ZM56,48.984l1.629-1.578,1.629,1.578L57.63,50.562Zm2.024,2.373v-.1l1.792-1.737,1.891,1.832H58.026Zm2.351-2.373,1.827-1.77q.876.011,1.746.027V49.4l-1.572,1.523Zm2.67,2.373,1.3-1.257,1.3,1.257ZM64.739,49.4V47.247h1.78l1.793,1.737-2,1.939Zm5.924,1.957H66.979l1.891-1.832,1.793,1.737v.095Zm-1.234-2.373,1.629-1.578,1.629,1.578-1.629,1.579Zm2.024,2.373v-.1l1.793-1.737,1.891,1.832H71.452ZM73.8,48.983,75.6,47.247h1.78V49.4L75.8,50.923Zm2.67,2.373,1.3-1.257,1.3,1.257ZM78.166,49.4V47.24q.876-.016,1.745-.027l1.827,1.771-2,1.939Zm5.924,1.957H80.406L82.3,49.525l1.793,1.737v.095Zm-1.234-2.373,1.629-1.579,1.629,1.578-1.629,1.579Zm5.062,2.373H84.879v-.1l1.793-1.737,1.246,1.207v.625Zm0-1.707-.688-.666.688-.666Zm0-2.415-1.246,1.207-1.629-1.578,1.629-1.578,1.246,1.207Zm0-1.824-.688-.666.688-.666Zm0-2.415L86.671,44.2l-1.793-1.737V40.742H87.1l.816.791V43Zm0-2.546-.094-.091.094-.091Zm0-1.265-.816.791H84.879V38.252l1.793-1.737,1.246,1.207v1.463Zm0-2.546-.688-.666.688-.666Zm0-2.415-1.246,1.207-1.629-1.578,1.629-1.578,1.246,1.207Zm0-1.824-.688-.666.688-.666Zm0-2.415-1.246,1.207-1.793-1.737V27.733H87.1l.783.759c.02.23.033.467.033.717v.778Z" transform="translate(-31.038 13)"/>
</svg>
