<svg xmlns="http://www.w3.org/2000/svg" width="32" height="32" viewBox="0 0 32 32">
  <g id="Group_20" data-name="Group 20" transform="translate(1287 -50)">
    <rect id="Rectangle_17" data-name="Rectangle 17" width="32" height="32" transform="translate(-1287 50)" fill="#e8eddf"/>
    <path id="Icon_awesome-mosque" data-name="Icon awesome-mosque" d="M0,15a1,1,0,0,0,1,1H3a1,1,0,0,0,1-1V5H0ZM18.1,9A2.606,2.606,0,0,0,19,7.159c0-1.652-1.306-2.931-2.748-3.841a14.281,14.281,0,0,1-3.5-3.007L12.5,0l-.254.312a14.269,14.269,0,0,1-3.5,3.007C7.306,4.228,6,5.507,6,7.159A2.606,2.606,0,0,0,6.9,9Zm.9,1H6a1,1,0,0,0-1,1v4a1,1,0,0,0,1,1H7V14a1,1,0,0,1,2,0v2h2V13.75a2.774,2.774,0,0,1,1.5-2.25A2.774,2.774,0,0,1,14,13.75V16h2V14a1,1,0,0,1,2,0v2h1a1,1,0,0,0,1-1V11A1,1,0,0,0,19,10ZM2,0A3.7,3.7,0,0,0,0,3V4H4V3A3.7,3.7,0,0,0,2,0Z" transform="translate(-1281 58)"/>
  </g>
</svg>
