<svg xmlns="http://www.w3.org/2000/svg" width="30.035" height="149.672" viewBox="0 0 30.035 149.672"><path d="M136.335,87.533a.248.248,0,0,0,.248-.248v-.761h.736a.248.248,0,0,0,.248-.248v-1.6a.248.248,0,0,0-.248-.248h-4c-.636-4.628-6.643-7.458-9.4-8.523a1.334,1.334,0,0,0,.067-.416,1.386,1.386,0,0,0-.849-1.265.833.833,0,0,0,.291-.63.846.846,0,0,0-.481-.756l-.129-1.027a1.24,1.24,0,0,0,.97-1.21v-.083a1.241,1.241,0,1,0-2.482,0V70.6a1.241,1.241,0,0,0,.97,1.21l-.129,1.027a.846.846,0,0,0-.481.756.834.834,0,0,0,.291.63,1.387,1.387,0,0,0-.849,1.265,1.334,1.334,0,0,0,.067.416c-2.758,1.065-8.766,3.895-9.4,8.523h-4a.248.248,0,0,0-.248.248v1.6a.248.248,0,0,0,.248.248h.736v.761a.248.248,0,0,0,.248.248h.541v26.851h-.541a.248.248,0,0,0-.248.248v.761h-.736a.248.248,0,0,0-.248.248v1.605a.248.248,0,0,0,.248.248h5.3c2.907,3.969,9.472,5.935,9.472,5.935s6.564-1.965,9.472-5.935h5.3a.248.248,0,0,0,.248-.248v-1.605a.248.248,0,0,0-.248-.248h-.736v-.761a.248.248,0,0,0-.248-.248h-.541V87.533Zm-19.9,25.152H112V95.632a11.4,11.4,0,0,1,2.216-6.772,11.4,11.4,0,0,1,2.217,6.772v17.053Zm9.977,0h-7.727V95.632c0-4.091,3.864-6.772,3.864-6.772s3.863,2.681,3.863,6.772v17.053Zm6.684,0h-4.433V95.632a11.4,11.4,0,0,1,2.216-6.772,11.4,11.4,0,0,1,2.217,6.772v17.053Z" transform="translate(-107.534 26.242)"/><g transform="translate(-107.534 84.053)"><path d="M192.035,25.732a1.241,1.241,0,0,0,1.241-1.241v-.159a1.241,1.241,0,0,0-2.482,0v.159A1.241,1.241,0,0,0,192.035,25.732Z" transform="translate(-69.484 -19.27)"/><path d="M192.035,2.641A1.241,1.241,0,0,0,193.276,1.4V1.241a1.241,1.241,0,0,0-2.482,0V1.4A1.241,1.241,0,0,0,192.035,2.641Z" transform="translate(-69.484)"/><path d="M192.035,2.641A1.241,1.241,0,0,0,193.276,1.4V1.241a1.241,1.241,0,0,0-2.482,0V1.4A1.241,1.241,0,0,0,192.035,2.641Z" transform="translate(-69.484 -3.821)"/><path d="M192.035,48.824a1.241,1.241,0,0,0,1.241-1.241v-.159a1.241,1.241,0,0,0-2.482,0v.159A1.241,1.241,0,0,0,192.035,48.824Z" transform="translate(-69.484 -38.542)"/></g><g transform="translate(-107.534 68.77)"><path d="M192.035,25.732a1.241,1.241,0,0,0,1.241-1.241v-.159a1.241,1.241,0,0,0-2.482,0v.159A1.241,1.241,0,0,0,192.035,25.732Z" transform="translate(-69.484 -19.27)"/><path d="M192.035,2.641A1.241,1.241,0,0,0,193.276,1.4V1.241a1.241,1.241,0,0,0-2.482,0V1.4A1.241,1.241,0,0,0,192.035,2.641Z" transform="translate(-69.484)"/><path d="M192.035,2.641A1.241,1.241,0,0,0,193.276,1.4V1.241a1.241,1.241,0,0,0-2.482,0V1.4A1.241,1.241,0,0,0,192.035,2.641Z" transform="translate(-69.484 -3.821)"/><path d="M192.035,48.824a1.241,1.241,0,0,0,1.241-1.241v-.159a1.241,1.241,0,0,0-2.482,0v.159A1.241,1.241,0,0,0,192.035,48.824Z" transform="translate(-69.484 -38.542)"/></g><g transform="translate(-107.534 53.488)"><path d="M192.035,25.732a1.241,1.241,0,0,0,1.241-1.241v-.159a1.241,1.241,0,0,0-2.482,0v.159A1.241,1.241,0,0,0,192.035,25.732Z" transform="translate(-69.484 -19.27)"/><path d="M192.035,2.641A1.241,1.241,0,0,0,193.276,1.4V1.241a1.241,1.241,0,0,0-2.482,0V1.4A1.241,1.241,0,0,0,192.035,2.641Z" transform="translate(-69.484)"/><path d="M192.035,2.641A1.241,1.241,0,0,0,193.276,1.4V1.241a1.241,1.241,0,0,0-2.482,0V1.4A1.241,1.241,0,0,0,192.035,2.641Z" transform="translate(-69.484 -3.821)"/><path d="M192.035,48.824a1.241,1.241,0,0,0,1.241-1.241v-.159a1.241,1.241,0,0,0-2.482,0v.159A1.241,1.241,0,0,0,192.035,48.824Z" transform="translate(-69.484 -38.542)"/></g><g transform="translate(-107.534 38.206)"><path d="M192.035,25.732a1.241,1.241,0,0,0,1.241-1.241v-.159a1.241,1.241,0,0,0-2.482,0v.159A1.241,1.241,0,0,0,192.035,25.732Z" transform="translate(-69.484 -19.27)"/><path d="M192.035,2.641A1.241,1.241,0,0,0,193.276,1.4V1.241a1.241,1.241,0,0,0-2.482,0V1.4A1.241,1.241,0,0,0,192.035,2.641Z" transform="translate(-69.484)"/><path d="M192.035,2.641A1.241,1.241,0,0,0,193.276,1.4V1.241a1.241,1.241,0,0,0-2.482,0V1.4A1.241,1.241,0,0,0,192.035,2.641Z" transform="translate(-69.484 -3.821)"/><path d="M192.035,48.824a1.241,1.241,0,0,0,1.241-1.241v-.159a1.241,1.241,0,0,0-2.482,0v.159A1.241,1.241,0,0,0,192.035,48.824Z" transform="translate(-69.484 -38.542)"/></g><g transform="translate(-107.534 22.924)"><path d="M192.035,25.732a1.241,1.241,0,0,0,1.241-1.241v-.159a1.241,1.241,0,0,0-2.482,0v.159A1.241,1.241,0,0,0,192.035,25.732Z" transform="translate(-69.484 -19.27)"/><path d="M192.035,2.641A1.241,1.241,0,0,0,193.276,1.4V1.241a1.241,1.241,0,0,0-2.482,0V1.4A1.241,1.241,0,0,0,192.035,2.641Z" transform="translate(-69.484)"/><path d="M192.035,2.641A1.241,1.241,0,0,0,193.276,1.4V1.241a1.241,1.241,0,0,0-2.482,0V1.4A1.241,1.241,0,0,0,192.035,2.641Z" transform="translate(-69.484 -3.821)"/><path d="M192.035,48.824a1.241,1.241,0,0,0,1.241-1.241v-.159a1.241,1.241,0,0,0-2.482,0v.159A1.241,1.241,0,0,0,192.035,48.824Z" transform="translate(-69.484 -38.542)"/></g><g transform="translate(-107.534 7.641)"><path d="M192.035,25.732a1.241,1.241,0,0,0,1.241-1.241v-.159a1.241,1.241,0,0,0-2.482,0v.159A1.241,1.241,0,0,0,192.035,25.732Z" transform="translate(-69.484 -19.27)"/><path d="M192.035,2.641A1.241,1.241,0,0,0,193.276,1.4V1.241a1.241,1.241,0,0,0-2.482,0V1.4A1.241,1.241,0,0,0,192.035,2.641Z" transform="translate(-69.484)"/><path d="M192.035,2.641A1.241,1.241,0,0,0,193.276,1.4V1.241a1.241,1.241,0,0,0-2.482,0V1.4A1.241,1.241,0,0,0,192.035,2.641Z" transform="translate(-69.484 -3.821)"/><path d="M192.035,2.641A1.241,1.241,0,0,0,193.276,1.4V1.241a1.241,1.241,0,0,0-2.482,0V1.4A1.241,1.241,0,0,0,192.035,2.641Z" transform="translate(-69.484 -7.641)"/><path d="M192.035,48.824a1.241,1.241,0,0,0,1.241-1.241v-.159a1.241,1.241,0,0,0-2.482,0v.159A1.241,1.241,0,0,0,192.035,48.824Z" transform="translate(-69.484 -38.542)"/></g></svg>