<svg id="mosque" xmlns="http://www.w3.org/2000/svg" width="45.372" height="45.351" viewBox="0 0 45.372 45.351">
  <path id="Path_11" data-name="Path 11" d="M44.858,30.65a1.191,1.191,0,0,0-1.567.144,20.178,20.178,0,0,1-5.2,3.86V32.638a.664.664,0,1,0-1.328,0v7.439a22.534,22.534,0,0,1-2.983,1.766V28.205H36.76v1.333a.664.664,0,1,0,1.328,0V24.109c1.128-1.531.313-3.206-1.238-4a2.52,2.52,0,0,1-.918-.775V18.029a.664.664,0,1,0-1.328,0v1.306a2.524,2.524,0,0,1-.918.775c-1.56.8-2.362,2.472-1.238,4v1.2H29.576V21.891a4.014,4.014,0,0,0,.5-4.889,7.471,7.471,0,0,0-3.489-2.852A6.285,6.285,0,0,1,24.2,12.53a1.17,1.17,0,0,0-.5-.352V10.916A2.367,2.367,0,0,0,25.352,9.81a.664.664,0,1,0-1.133-.693,1.048,1.048,0,1,1-1.728-1.18.664.664,0,0,0-1.058-.8,2.376,2.376,0,0,0,.453,3.329,2.392,2.392,0,0,0,.486.286v1.429a1.17,1.17,0,0,0-.5.352,6.285,6.285,0,0,1-2.385,1.621A7.471,7.471,0,0,0,16,17a4.014,4.014,0,0,0,.5,4.889v3.418H13.624v-1.2a2.4,2.4,0,0,0,.29-2.517c-.761-1.439-1.8-1.369-2.312-2.106a.877.877,0,0,0-.134-.151V18.029a.664.664,0,0,0-1.328,0v1.306a2.522,2.522,0,0,1-.918.775c-.109.055-.211.116-.312.18a20.478,20.478,0,0,1-.32-3.6c0-.46.017-.938.051-1.422a.664.664,0,1,0-1.325-.092c-.036.515-.054,1.024-.054,1.514a21.774,21.774,0,0,0,.522,4.744,2.351,2.351,0,0,0,.2,2.677V37.592A22.5,22.5,0,0,1,13.239,1.8a21.448,21.448,0,0,0-5.458,10.18.664.664,0,1,0,1.3.289A20.138,20.138,0,0,1,14.7,2.206,1.207,1.207,0,0,0,13.333.255,23.9,23.9,0,0,0,3.724,8.886C-6.282,24.645,5.036,45.472,23.857,45.472A23.841,23.841,0,0,0,45.243,32.165a1.183,1.183,0,0,0-.385-1.515ZM12.3,40.95a22.6,22.6,0,0,1-2.983-2.137V28.205H12.3Zm0-14.073H9.313V24.537H12.3Zm.334-3.668H8.979a1.069,1.069,0,0,1-.11-1c.489-.926,1.163-.831,1.935-1.617.771.785,1.445.691,1.935,1.617A1.066,1.066,0,0,1,12.63,23.209Zm3.867,19.7a22.45,22.45,0,0,1-2.873-1.224V26.638H16.5ZM25.225,44.1c-.422.026-.87.043-1.368.043a22.72,22.72,0,0,1-3.01-.2V36.387a3.753,3.753,0,0,1,2.123-3.4.15.15,0,0,1,.132,0h0a3.753,3.753,0,0,1,2.123,3.4V44.1Zm3.022-.386q-.84.166-1.693.268v-7.6A5.073,5.073,0,0,0,23.685,31.8a1.469,1.469,0,0,0-1.3,0,5.073,5.073,0,0,0-2.869,4.589v7.337q-.854-.167-1.693-.4v-14.7H28.247Zm0-16.417H17.826V22.279H28.247Zm.39-6.346h-11.2a2.686,2.686,0,0,1-.31-3.242,6.173,6.173,0,0,1,2.888-2.338,7.657,7.657,0,0,0,2.835-1.936h.375a7.656,7.656,0,0,0,2.835,1.936,6.173,6.173,0,0,1,2.888,2.338A2.686,2.686,0,0,1,28.638,20.95Zm3.811,21.494a22.4,22.4,0,0,1-2.873.965V26.638h2.873ZM36.76,26.877H33.777V24.537H36.76Zm-3.427-4.663a2.164,2.164,0,0,1,.957-.919,3.748,3.748,0,0,0,.978-.7,3.746,3.746,0,0,0,.978.7,2.165,2.165,0,0,1,.957.919,1.067,1.067,0,0,1-.109,1H33.442a1.066,1.066,0,0,1-.11-1Zm4.755,16.857V36.139A21.478,21.478,0,0,0,43.7,32.26,22.688,22.688,0,0,1,38.088,39.071Z" transform="translate(0 -0.121)" fill="#e8eddf"/>
  <path id="Path_12" data-name="Path 12" d="M220.1,266.74a.664.664,0,0,0,.664-.664v-1.232a.664.664,0,1,0-1.328,0v1.232A.664.664,0,0,0,220.1,266.74Z" transform="translate(-200.003 -240.794)" fill="#e8eddf"/>
  <path id="Path_13" data-name="Path 13" d="M253.268,266.74a.664.664,0,0,0,.664-.664v-1.232a.664.664,0,1,0-1.328,0v1.232A.664.664,0,0,0,253.268,266.74Z" transform="translate(-230.232 -240.794)" fill="#e8eddf"/>
  <path id="Path_14" data-name="Path 14" d="M286.436,266.74a.664.664,0,0,0,.664-.664v-1.232a.664.664,0,1,0-1.328,0v1.232A.664.664,0,0,0,286.436,266.74Z" transform="translate(-260.463 -240.794)" fill="#e8eddf"/>
</svg>
